<svg width="360" height="302" viewBox="0 0 360 302" fill="none" xmlns="http://www.w3.org/2000/svg">
<path d="M290.004 7.32812H69.7063C69.1219 7.32812 68.5375 7.36993 67.953 7.46748L66.5198 7.55109L64.7109 8.49868L30.6894 24.8307C26.8489 26.6702 24.3721 30.6138 24.3721 34.878V64.5042L14.9379 69.4372C11.2505 71.3742 8.95459 75.1646 8.95459 79.3173V173.491C8.95459 177.7 11.2784 181.504 15.0214 183.413L24.3721 188.207V215.576C24.3721 218.07 25.1931 220.425 26.6402 222.334C26.4037 222.641 26.181 222.975 25.9723 223.31L25.5131 224.062L25.3044 224.606C25.0539 225.163 24.8591 225.72 24.72 226.306C24.5947 226.807 24.4973 227.323 24.4417 227.839C24.386 228.257 24.3721 228.661 24.3721 229.079V266.132C24.3721 269.867 26.2228 273.323 29.3118 275.399L63.5003 298.364L65.4066 299.647L66.8538 299.883C67.7861 300.134 68.7323 300.26 69.6924 300.26H290.004C296.141 300.26 301.136 295.257 301.136 289.112V246.651L300.83 245.62C300.774 245.369 300.705 245.118 300.621 244.867C300.454 244.324 300.259 243.808 300.009 243.307C299.689 242.638 299.299 241.997 298.826 241.384C298.659 241.161 298.478 240.938 298.297 240.742C300.051 238.764 301.122 236.172 301.122 233.329V191.482L310.403 186.799L310.709 187.426C312.49 190.952 316.025 193.279 319.935 193.53H320.004H320.074H320.338H320.631C324.318 193.53 327.755 191.719 329.828 188.681L355.821 150.233C358.66 146.039 358.312 140.437 354.958 136.619C352.871 134.222 349.824 132.828 346.609 132.828C344.884 132.828 343.159 133.233 341.614 134.013L315.426 147.237L315.12 146.61C313.339 143.085 309.805 140.758 305.895 140.507H305.853H305.811H305.519L305.185 140.493C303.78 140.493 302.402 140.758 301.122 141.259V135.615L310.403 130.933L310.709 131.56C312.49 135.086 316.025 137.413 319.949 137.664H320.088L320.227 137.678H320.422H320.631C324.318 137.678 327.769 135.866 329.842 132.828L355.835 94.3952C358.673 90.2007 358.326 84.5987 354.972 80.7805C352.885 78.3836 349.838 76.9901 346.623 76.9901C344.898 76.9901 343.172 77.3942 341.628 78.1746L315.44 91.3991L315.134 90.772C313.353 87.2464 309.819 84.9192 305.909 84.6684H305.853H305.797H305.533L305.227 84.6545C303.808 84.6545 302.444 84.9192 301.164 85.4209V79.7772L310.445 75.0949L310.751 75.722C312.532 79.2476 316.067 81.5748 319.991 81.8256H320.088H320.185H320.408H320.658C324.346 81.8256 327.783 80.0141 329.87 76.9762L355.863 38.5429C358.701 34.3484 358.353 28.7465 355 24.9283C352.913 22.5314 349.865 21.1379 346.651 21.1379C344.926 21.1379 343.2 21.542 341.656 22.3224L315.468 35.5469L315.162 34.9198C313.381 31.3942 309.847 29.067 305.923 28.8162H305.825H305.728H305.505H305.241C303.822 28.8162 302.444 29.081 301.178 29.5826V18.5181C301.178 12.3727 296.182 7.36993 290.046 7.36993L290.004 7.32812Z" fill="#231F20" stroke="#231F20" stroke-linecap="round" stroke-linejoin="round"/>
<path d="M283.047 1.75439H62.749C62.1646 1.75439 61.5802 1.7962 60.9958 1.89375L59.5625 1.97736L57.7536 2.92495L23.746 19.2709C19.9056 21.1104 17.4287 25.054 17.4287 29.3182V58.9444L7.99456 63.8774C4.30716 65.8144 2.01123 69.6048 2.01123 73.7575V167.918C2.01123 172.126 4.33499 175.93 8.07805 177.839L17.4287 182.633V210.002C17.4287 212.496 18.2497 214.851 19.6968 216.76C19.4603 217.067 19.2377 217.401 19.0289 217.736L18.5698 218.488L18.361 219.032C18.1106 219.589 17.9158 220.147 17.7766 220.732C17.6514 221.234 17.554 221.749 17.4983 222.265C17.4427 222.683 17.4287 223.087 17.4287 223.505V260.559C17.4287 264.293 19.2794 267.749 22.3685 269.826L56.557 292.791L58.4633 294.073L59.9104 294.31C60.8427 294.561 61.7889 294.686 62.749 294.686H283.047C289.183 294.686 294.179 289.683 294.179 283.538V241.077L293.873 240.046C293.817 239.795 293.747 239.544 293.664 239.294C293.497 238.75 293.302 238.235 293.052 237.733C292.732 237.064 292.342 236.423 291.869 235.81C291.702 235.587 291.521 235.364 291.34 235.169C293.093 233.19 294.165 230.598 294.165 227.755V185.908L303.446 181.226L303.752 181.853C305.533 185.378 309.068 187.706 312.978 187.956H313.047H313.117H313.381H313.673C317.361 187.956 320.798 186.145 322.871 183.107L348.864 144.66C351.702 140.465 351.354 134.863 348.001 131.045C345.914 128.648 342.866 127.255 339.652 127.255C337.927 127.255 336.201 127.659 334.657 128.439L308.469 141.664L308.163 141.037C306.382 137.511 302.848 135.184 298.938 134.933H298.896H298.854H298.562L298.228 134.919C296.823 134.919 295.445 135.184 294.165 135.685V130.042L303.446 125.359L303.752 125.987C305.533 129.512 309.068 131.839 312.991 132.09H313.131L313.27 132.104H313.465H313.673C317.361 132.104 320.812 130.293 322.885 127.255L348.878 88.8214C351.716 84.6269 351.368 79.025 348.015 75.2068C345.928 72.8099 342.88 71.4164 339.666 71.4164C337.941 71.4164 336.215 71.8205 334.671 72.6009L308.483 85.8254L308.177 85.1983C306.396 81.6727 302.862 79.3455 298.952 79.0947H298.896H298.84H298.576L298.27 79.0807C296.85 79.0807 295.487 79.3455 294.207 79.8472V74.2034L303.488 69.5212L303.794 70.1483C305.575 73.6739 309.109 76.0011 313.033 76.2519H313.131H313.228H313.451H313.701C317.389 76.2519 320.825 74.4403 322.913 71.4025L348.905 32.9692C351.744 28.7747 351.396 23.1728 348.043 19.3545C345.956 16.9577 342.908 15.5642 339.694 15.5642C337.968 15.5642 336.243 15.9683 334.698 16.7487L308.511 29.9731L308.205 29.3461C306.424 25.8205 302.889 23.4933 298.965 23.2425H298.868H298.771H298.548H298.284C296.864 23.2425 295.487 23.5072 294.221 24.0089V12.9443C294.221 6.79893 289.225 1.7962 283.089 1.7962L283.047 1.75439Z" fill="#F0F4DA" stroke="#231F20" stroke-linecap="round" stroke-linejoin="round"/>
<path d="M233.511 222.919L28.5469 223.505L62.7493 242.54H283.047L233.511 222.919Z" fill="#F9B728" stroke="#231F20" stroke-linecap="round" stroke-linejoin="round"/>
<path d="M103.617 235.782L88.1157 227.49V208.845L103.617 213.04V235.782Z" fill="#F9B728" stroke="#231F20" stroke-linecap="round" stroke-linejoin="round"/>
<path d="M217.898 213.04H103.617V235.782H217.898V213.04Z" fill="#F0F4DA" stroke="#231F20" stroke-linecap="round" stroke-linejoin="round"/>
<path d="M49.1961 54.9307L13.1431 73.771V167.917L47.8325 185.685L49.1961 54.9307Z" fill="#F9B728" stroke="#231F20" stroke-linecap="round" stroke-linejoin="round"/>
<path d="M62.7493 227.699L28.5469 210.002V29.3319L62.7493 12.9023V227.699Z" fill="#F9B728" stroke="#231F20" stroke-linecap="round" stroke-linejoin="round"/>
<path d="M35.0864 40.1457L54.9845 30.6001" stroke="#231F20" stroke-linecap="round" stroke-linejoin="round"/>
<path d="M35.0864 50.6386L54.9845 41.0791" stroke="#231F20" stroke-linecap="round" stroke-linejoin="round"/>
<path d="M35.0864 61.1179L54.9845 51.5723" stroke="#231F20" stroke-linecap="round" stroke-linejoin="round"/>
<path d="M283.033 12.9023H62.749V227.699H283.033V12.9023Z" fill="#F0F4DA" stroke="#231F20" stroke-linecap="round" stroke-linejoin="round"/>
<path d="M283.033 242.54H62.749V283.509H283.033V242.54Z" fill="#F0F4DA" stroke="#231F20" stroke-linecap="round" stroke-linejoin="round"/>
<path d="M249.93 33.0806H95.8663C89.0037 33.0806 83.4404 38.652 83.4404 45.5247V195.105C83.4404 201.978 89.0037 207.549 95.8663 207.549H249.93C256.793 207.549 262.356 201.978 262.356 195.105V45.5247C262.356 38.652 256.793 33.0806 249.93 33.0806Z" fill="#231F20" stroke="#231F20" stroke-linecap="round" stroke-linejoin="round"/>
<path d="M28.5469 223.505V260.545L62.7493 283.524V242.54L28.5469 223.505Z" fill="#F9B728" stroke="#231F20" stroke-linecap="round" stroke-linejoin="round"/>
<path d="M270.385 219.366C273.167 219.366 275.422 217.107 275.422 214.321C275.422 211.535 273.167 209.277 270.385 209.277C267.603 209.277 265.348 211.535 265.348 214.321C265.348 217.107 267.603 219.366 270.385 219.366Z" fill="#0BA65B" stroke="#231F20" stroke-linecap="round" stroke-linejoin="round"/>
<path d="M268.186 252.169H180.997V256.824H268.186V252.169Z" fill="#231F20" stroke="#231F20" stroke-linecap="round" stroke-linejoin="round"/>
<path d="M165.12 252.169H73.2129V263.025H165.12V252.169Z" fill="#F0F4DA" stroke="#231F20" stroke-linecap="round" stroke-linejoin="round"/>
<path d="M268.172 265.826H249.721V274.828H268.172V265.826Z" fill="#F0F4DA" stroke="#231F20" stroke-linecap="round" stroke-linejoin="round"/>
<path d="M245.853 265.826H227.402V274.828H245.853V265.826Z" fill="#F0F4DA" stroke="#231F20" stroke-linecap="round" stroke-linejoin="round"/>
<path d="M339.666 26.6841L303.557 44.9252L298.228 34.3484L272.263 72.7538L308.386 54.5126L313.701 65.0894L339.666 26.6841Z" fill="#F9B728" stroke="#231F20" stroke-linecap="round" stroke-linejoin="round"/>
<path d="M339.666 82.5225L303.557 100.764L298.228 90.1868L272.263 128.592L308.386 110.351L313.701 120.928L339.666 82.5225Z" fill="#F9B728" stroke="#231F20" stroke-linecap="round" stroke-linejoin="round"/>
<path d="M339.666 138.375L303.557 156.602L298.228 146.039L272.263 184.431L308.386 166.19L313.701 176.766L339.666 138.375Z" fill="#F9B728" stroke="#231F20" stroke-linecap="round" stroke-linejoin="round"/>
<path d="M100.444 46.4724H113.009V51.6284H106.274V58.5403H112.619V63.6963H106.274V76.7954H100.444V46.4585V46.4724Z" fill="#F97428"/>
<path d="M121.093 46.4722V69.5767C121.093 71.3465 121.636 72.2941 122.958 72.2941C124.363 72.2941 124.795 71.2211 124.795 69.5767V46.4722H130.695V69.2005C130.695 74.5794 128.232 77.2411 122.875 77.2411C117.517 77.2411 115.235 74.677 115.235 69.1586V46.4861H121.093V46.4722Z" fill="#F97428"/>
<path d="M134.173 76.8093V46.4724H140.616C141.576 50.1792 144.609 63.9193 144.846 65.2431H144.985C144.665 61.2019 144.456 55.6836 144.456 51.4473V46.4585H149.869V76.7954H143.357C142.731 73.9108 139.419 58.2059 139.224 57.2443H139.071C139.294 60.8117 139.475 66.8457 139.475 71.6115V76.7954H134.159L134.173 76.8093Z" fill="#F97428"/>
<path d="M168.028 66.9013V68.5457C168.028 72.3778 167.318 77.2552 160.375 77.2552C155.24 77.2552 153.014 74.5239 153.014 68.9358V54.0531C153.014 48.7716 155.644 45.9985 160.5 45.9985C166.901 45.9985 167.93 50.2209 167.93 54.1924V56.1015H162.072V53.5096C162.072 51.8374 161.71 50.9873 160.5 50.9873C159.289 50.9873 158.914 51.7816 158.914 53.5096V69.549C158.914 71.1655 159.178 72.2803 160.5 72.2803C161.822 72.2803 162.128 71.3466 162.128 69.4236V66.9013H168.028Z" fill="#F97428"/>
<path d="M173.371 51.6282H168.96V46.4722H183.626V51.6282H179.187V76.8091H173.371V51.6282Z" fill="#F97428"/>
<path d="M191.516 46.4722V76.8091H185.699V46.4722H191.516Z" fill="#F97428"/>
<path d="M210.426 54.5828V68.6574C210.426 74.6774 207.601 77.2554 202.3 77.2554C196.998 77.2554 194.688 74.6077 194.688 68.7131V54.4295C194.688 48.5768 197.903 46.0127 202.564 46.0127C207.226 46.0127 210.412 48.521 210.412 54.5828H210.426ZM200.588 53.9279V69.4377C200.588 71.3051 201.228 72.2945 202.536 72.2945C203.844 72.2945 204.512 71.4026 204.512 69.4099V53.8861C204.512 51.9909 203.984 51.0154 202.522 51.0154C201.284 51.0154 200.588 51.9073 200.588 53.9279Z" fill="#F97428"/>
<path d="M213.557 76.8093V46.4724H219.999C220.96 50.1792 223.993 63.9193 224.229 65.2431H224.369C224.049 61.2019 223.84 55.6836 223.84 51.4473V46.4585H229.253V76.7954H222.741C222.114 73.9108 218.803 58.2059 218.608 57.2443H218.455C218.678 60.8117 218.858 66.8457 218.858 71.6115V76.7954H213.543L213.557 76.8093Z" fill="#F97428"/>
<path d="M237.573 67.4587V69.5629C237.573 71.5557 238.074 72.4893 239.396 72.4893C240.718 72.4893 241.052 71.1097 241.052 69.6884C241.052 66.8316 240.509 65.9955 237.42 63.4036C234.011 60.5051 232.258 58.791 232.258 54.3318C232.258 49.8725 233.691 45.9985 239.424 45.9985C245.519 45.9985 246.423 50.1652 246.423 53.635V55.3769H240.927V53.5653C240.927 51.7259 240.621 50.8201 239.48 50.8201C238.408 50.8201 238.06 51.7398 238.06 53.4678C238.06 55.2933 238.394 56.1991 240.899 58.15C245.352 61.6617 246.952 63.6265 246.952 68.6153C246.952 73.6041 245.338 77.283 239.313 77.283C233.288 77.283 231.882 73.7992 231.882 69.2982V67.4727H237.587L237.573 67.4587Z" fill="#F97428"/>
<path d="M100.444 85.9368H113.009V91.0928H106.274V98.0047H112.619V103.161H106.274V116.26H100.444V85.9229V85.9368Z" fill="#F38BA3"/>
<path d="M121.093 85.9365V109.041C121.093 110.811 121.636 111.758 122.958 111.758C124.363 111.758 124.795 110.685 124.795 109.041V85.9365H130.695V108.665C130.695 114.044 128.232 116.705 122.875 116.705C117.517 116.705 115.235 114.141 115.235 108.623V85.9505H121.093V85.9365Z" fill="#F38BA3"/>
<path d="M134.173 116.274V85.9368H140.616C141.576 89.6435 144.609 103.384 144.846 104.707H144.985C144.665 100.666 144.456 95.1479 144.456 90.9116V85.9229H149.869V116.26H143.357C142.731 113.375 139.419 97.6702 139.224 96.7087H139.071C139.294 100.276 139.475 106.31 139.475 111.076V116.26H134.159L134.173 116.274Z" fill="#F38BA3"/>
<path d="M168.028 106.38V108.024C168.028 111.856 167.318 116.734 160.375 116.734C155.24 116.734 153.014 114.002 153.014 108.414V93.5316C153.014 88.2502 155.644 85.4771 160.5 85.4771C166.901 85.4771 167.93 89.6994 167.93 93.6709V95.5801H162.072V92.9881C162.072 91.3159 161.71 90.4658 160.5 90.4658C159.289 90.4658 158.914 91.2602 158.914 92.9881V109.028C158.914 110.644 159.178 111.759 160.5 111.759C161.822 111.759 162.128 110.825 162.128 108.902V106.38H168.028Z" fill="#F38BA3"/>
<path d="M173.371 91.1067H168.96V85.9507H183.626V91.1067H179.187V116.288H173.371V91.1067Z" fill="#F38BA3"/>
<path d="M191.516 85.9365V116.273H185.699V85.9365H191.516Z" fill="#F38BA3"/>
<path d="M210.426 94.0609V108.135C210.426 114.155 207.601 116.733 202.3 116.733C196.998 116.733 194.688 114.086 194.688 108.191V93.9076C194.688 88.0548 197.903 85.4907 202.564 85.4907C207.226 85.4907 210.412 87.9991 210.412 94.0609H210.426ZM200.588 93.4059V108.916C200.588 110.783 201.228 111.772 202.536 111.772C203.844 111.772 204.512 110.881 204.512 108.888V93.3641C204.512 91.4689 203.984 90.4935 202.522 90.4935C201.284 90.4935 200.588 91.3853 200.588 93.4059Z" fill="#F38BA3"/>
<path d="M213.557 116.274V85.9368H219.999C220.96 89.6435 223.993 103.384 224.229 104.707H224.369C224.049 100.666 223.84 95.1479 223.84 90.9116V85.9229H229.253V116.26H222.741C222.114 113.375 218.803 97.6702 218.608 96.7087H218.455C218.678 100.276 218.858 106.31 218.858 111.076V116.26H213.543L213.557 116.274Z" fill="#F38BA3"/>
<path d="M237.573 106.923V109.027C237.573 111.02 238.074 111.954 239.396 111.954C240.718 111.954 241.052 110.574 241.052 109.153C241.052 106.296 240.509 105.46 237.42 102.868C234.011 99.9694 232.258 98.2554 232.258 93.7961C232.258 89.3369 233.691 85.4629 239.424 85.4629C245.519 85.4629 246.423 89.6295 246.423 93.0994V94.8413H240.927V93.0297C240.927 91.1903 240.621 90.2845 239.48 90.2845C238.408 90.2845 238.06 91.2042 238.06 92.9322C238.06 94.7577 238.394 95.6634 240.899 97.6144C245.352 101.126 246.952 103.091 246.952 108.08C246.952 113.068 245.338 116.747 239.313 116.747C233.288 116.747 231.882 113.264 231.882 108.763V106.937H237.587L237.573 106.923Z" fill="#F38BA3"/>
<path d="M100.444 125.415H113.009V130.571H106.274V137.483H112.619V142.639H106.274V155.738H100.444V125.401V125.415Z" fill="#0BA65B"/>
<path d="M121.093 125.415V148.52C121.093 150.289 121.636 151.237 122.958 151.237C124.363 151.237 124.795 150.164 124.795 148.52V125.415H130.695V148.143C130.695 153.522 128.232 156.184 122.875 156.184C117.517 156.184 115.235 153.62 115.235 148.102V125.429H121.093V125.415Z" fill="#0BA65B"/>
<path d="M134.173 155.752V125.415H140.616C141.576 129.122 144.609 142.862 144.846 144.186H144.985C144.665 140.145 144.456 134.626 144.456 130.39V125.401H149.869V155.738H143.357C142.731 152.854 139.419 137.149 139.224 136.187H139.071C139.294 139.755 139.475 145.789 139.475 150.554V155.738H134.159L134.173 155.752Z" fill="#0BA65B"/>
<path d="M168.028 145.844V147.489C168.028 151.321 167.318 156.198 160.375 156.198C155.24 156.198 153.014 153.467 153.014 147.879V132.996C153.014 127.715 155.644 124.941 160.5 124.941C166.901 124.941 167.93 129.164 167.93 133.135V135.044H162.072V132.452C162.072 130.78 161.71 129.93 160.5 129.93C159.289 129.93 158.914 130.725 158.914 132.452V148.492C158.914 150.108 159.178 151.223 160.5 151.223C161.822 151.223 162.128 150.29 162.128 148.366V145.844H168.028Z" fill="#0BA65B"/>
<path d="M173.371 130.571H168.96V125.415H183.626V130.571H179.187V155.752H173.371V130.571Z" fill="#0BA65B"/>
<path d="M191.516 125.415V155.752H185.699V125.415H191.516Z" fill="#0BA65B"/>
<path d="M210.426 133.526V147.6C210.426 153.62 207.601 156.198 202.3 156.198C196.998 156.198 194.688 153.551 194.688 147.656V133.372C194.688 127.52 197.903 124.956 202.564 124.956C207.226 124.956 210.412 127.464 210.412 133.526H210.426ZM200.588 132.871V148.381C200.588 150.248 201.228 151.237 202.536 151.237C203.844 151.237 204.512 150.345 204.512 148.353V132.829C204.512 130.934 203.984 129.958 202.522 129.958C201.284 129.958 200.588 130.85 200.588 132.871Z" fill="#0BA65B"/>
<path d="M213.557 155.752V125.415H219.999C220.96 129.122 223.993 142.862 224.229 144.186H224.369C224.049 140.145 223.84 134.626 223.84 130.39V125.401H229.253V155.738H222.741C222.114 152.854 218.803 137.149 218.608 136.187H218.455C218.678 139.755 218.858 145.789 218.858 150.554V155.738H213.543L213.557 155.752Z" fill="#0BA65B"/>
<path d="M237.573 146.402V148.506C237.573 150.499 238.074 151.432 239.396 151.432C240.718 151.432 241.052 150.053 241.052 148.631C241.052 145.775 240.509 144.938 237.42 142.346C234.011 139.448 232.258 137.734 232.258 133.275C232.258 128.815 233.691 124.941 239.424 124.941C245.519 124.941 246.423 129.108 246.423 132.578V134.32H240.927V132.508C240.927 130.669 240.621 129.763 239.48 129.763C238.408 129.763 238.06 130.683 238.06 132.411C238.06 134.236 238.394 135.142 240.899 137.093C245.352 140.605 246.952 142.569 246.952 147.558C246.952 152.547 245.338 156.226 239.313 156.226C233.288 156.226 231.882 152.742 231.882 148.241V146.416H237.587L237.573 146.402Z" fill="#0BA65B"/>
<path d="M100.444 164.88H113.009V170.036H106.274V176.948H112.619V182.104H106.274V195.203H100.444V164.866V164.88Z" fill="#12B2E2"/>
<path d="M121.093 164.879V187.984C121.093 189.754 121.636 190.701 122.958 190.701C124.363 190.701 124.795 189.628 124.795 187.984V164.879H130.695V187.608C130.695 192.987 128.232 195.648 122.875 195.648C117.517 195.648 115.235 193.084 115.235 187.566V164.893H121.093V164.879Z" fill="#12B2E2"/>
<path d="M134.173 195.217V164.88H140.616C141.576 168.586 144.609 182.327 144.846 183.65H144.985C144.665 179.609 144.456 174.091 144.456 169.855V164.866H149.869V195.203H143.357C142.731 192.318 139.419 176.613 139.224 175.652H139.071C139.294 179.219 139.475 185.253 139.475 190.019V195.203H134.159L134.173 195.217Z" fill="#12B2E2"/>
<path d="M168.028 185.323V186.967C168.028 190.799 167.318 195.677 160.375 195.677C155.24 195.677 153.014 192.945 153.014 187.357V172.474C153.014 167.193 155.644 164.42 160.5 164.42C166.901 164.42 167.93 168.642 167.93 172.614V174.523H162.072V171.931C162.072 170.259 161.71 169.409 160.5 169.409C159.289 169.409 158.914 170.203 158.914 171.931V187.97C158.914 189.587 159.178 190.702 160.5 190.702C161.822 190.702 162.128 189.768 162.128 187.845V185.323H168.028Z" fill="#12B2E2"/>
<path d="M173.371 170.05H168.96V164.894H183.626V170.05H179.187V195.23H173.371V170.05Z" fill="#12B2E2"/>
<path d="M191.516 164.879V195.216H185.699V164.879H191.516Z" fill="#12B2E2"/>
<path d="M210.426 173.004V187.078C210.426 193.098 207.601 195.676 202.3 195.676C196.998 195.676 194.688 193.029 194.688 187.134V172.85C194.688 166.998 197.903 164.434 202.564 164.434C207.226 164.434 210.412 166.942 210.412 173.004H210.426ZM200.588 172.349V187.859C200.588 189.726 201.228 190.715 202.536 190.715C203.844 190.715 204.512 189.823 204.512 187.831V172.307C204.512 170.412 203.984 169.436 202.522 169.436C201.284 169.436 200.588 170.328 200.588 172.349Z" fill="#12B2E2"/>
<path d="M213.557 195.217V164.88H219.999C220.96 168.586 223.993 182.327 224.229 183.65H224.369C224.049 179.609 223.84 174.091 223.84 169.855V164.866H229.253V195.203H222.741C222.114 192.318 218.803 176.613 218.608 175.652H218.455C218.678 179.219 218.858 185.253 218.858 190.019V195.203H213.543L213.557 195.217Z" fill="#12B2E2"/>
<path d="M237.573 185.866V187.97C237.573 189.963 238.074 190.897 239.396 190.897C240.718 190.897 241.052 189.517 241.052 188.096C241.052 185.239 240.509 184.403 237.42 181.811C234.011 178.912 232.258 177.198 232.258 172.739C232.258 168.28 233.691 164.406 239.424 164.406C245.519 164.406 246.423 168.572 246.423 172.042V173.784H240.927V171.973C240.927 170.133 240.621 169.227 239.48 169.227C238.408 169.227 238.06 170.147 238.06 171.875C238.06 173.701 238.394 174.606 240.899 176.557C245.352 180.069 246.952 182.034 246.952 187.023C246.952 192.011 245.338 195.69 239.313 195.69C233.288 195.69 231.882 192.206 231.882 187.705V185.88H237.587L237.573 185.866Z" fill="#12B2E2"/>
</svg>
