<svg width="382" height="302" viewBox="0 0 382 302" fill="none" xmlns="http://www.w3.org/2000/svg">
<g clip-path="url(#clip0_8_766)">
<path d="M376.931 79.1378C375.779 63.2811 371.586 49.8214 364.49 39.1273C357.071 27.9263 346.841 19.3065 334.077 13.4525C323.387 8.5664 311.13 5.75461 297.72 5.10928C297.168 5.06318 296.522 5.06318 295.877 5.06318H263.898C247.862 5.29366 232.334 10.4102 218.97 19.8597C218.095 20.505 216.851 20.4128 216.067 19.6292C206.022 10.0875 192.982 5.01709 178.328 5.01709H158.606C142.755 5.01709 128.885 10.8711 118.517 21.98L117.964 22.5332C117.964 22.5332 117.964 22.5332 117.918 22.5793L117.872 22.6254C115.568 25.1606 113.494 27.9263 111.743 30.7842C111.697 30.8303 111.697 30.8764 111.651 30.9225L83.266 70.6563C83.266 70.6563 83.266 70.7024 83.2199 70.7024C75.8472 80.5667 72.1608 92.1826 72.5755 104.306C72.5755 104.352 72.5755 104.352 72.5755 104.398V112.003C72.5755 113.018 71.8843 113.939 70.9167 114.216C59.535 117.535 49.9044 124.864 43.7297 134.774C43.6836 134.82 43.6836 134.867 43.6375 134.913L15.3907 174.324C15.3907 174.37 15.3446 174.37 15.3446 174.416C9.44645 181.976 5.89832 191.102 4.79241 201.566C4.65417 202.903 4.56201 204.193 4.56201 205.484V219.773C4.56201 220.649 4.60809 221.571 4.65417 222.493C5.80616 238.35 9.99941 251.809 17.0957 262.503C24.5145 273.705 34.7442 282.324 47.5082 288.178C58.1987 293.064 70.3637 295.876 83.6807 296.522C84.2337 296.568 84.8327 296.568 85.4778 296.568H111.928C112.619 296.568 113.356 296.568 114.047 296.522C134.23 295.369 152.385 288.086 166.486 275.41C166.947 274.995 167.453 274.811 168.006 274.811C168.559 274.811 169.112 274.995 169.573 275.41C175.195 280.573 181.738 284.86 189.019 288.224C199.709 293.111 211.874 295.922 225.191 296.568C225.744 296.614 226.343 296.614 226.988 296.614H259.428C277.215 296.337 294.218 290.068 308.595 278.452C316.291 272.23 322.88 264.9 328.179 256.649C328.179 256.603 328.225 256.603 328.225 256.557L355.596 218.345C355.596 218.345 355.596 218.298 355.643 218.298C356.426 217.284 357.209 216.132 358.085 214.887C358.085 214.887 358.085 214.841 358.131 214.841C358.453 214.38 358.822 213.873 359.237 213.228C363.154 207.236 366.425 200.736 368.914 193.868C374.028 179.901 376.609 166.81 376.609 154.964C376.609 154.18 376.563 153.397 376.517 152.659C375.872 142.242 373.568 132.608 369.697 124.08C369.374 123.389 369.42 122.605 369.789 121.96C373.568 115.507 375.918 108.131 376.793 100.019C376.931 98.7742 376.977 97.4836 376.977 96.1929V81.9035C376.977 81.0738 376.931 80.198 376.885 79.3682C376.977 79.2761 376.931 79.23 376.931 79.1378ZM342.51 96.1468C342.51 96.239 342.51 96.3312 342.51 96.3773C342.141 99.9266 341.174 102.6 339.883 104.674L327.857 125.601C328.916 126.385 329.93 127.169 330.852 127.998C337.579 133.991 341.358 142.979 342.095 154.78C342.095 154.826 342.095 154.872 342.095 154.918C342.095 162.708 340.206 171.789 336.52 181.93C334.861 186.493 332.695 190.734 330.115 194.606L330.068 194.652L329.93 194.836C329.239 195.85 328.548 196.818 327.811 197.786L299.656 237.105C296.246 242.544 292.007 247.384 286.938 251.487C278.505 258.309 269.105 261.812 258.968 261.95H227.034C226.942 261.95 226.804 261.95 226.712 261.95C217.865 261.489 210.031 259.738 203.396 256.696C196.576 253.607 191.231 249.09 187.406 243.374C183.627 237.704 181.369 229.776 180.632 219.912C180.632 219.866 180.632 219.82 180.632 219.727V205.438C180.632 205.346 180.632 205.254 180.632 205.207C180.955 202.027 181.784 199.538 182.844 197.556L182.521 197.141L182.475 197.187L152.846 238.718C152.8 238.765 152.8 238.765 152.754 238.811C150.22 242.498 147.271 245.909 143.953 248.998C135.566 256.834 124.784 261.167 111.974 261.904C111.928 261.904 111.881 261.904 111.835 261.904H85.3857C85.3396 261.904 85.2935 261.904 85.2935 261.904C76.3541 261.489 68.4744 259.692 61.7929 256.649C54.9731 253.561 49.6279 249.044 45.8033 243.328C42.0247 237.658 39.7668 229.73 39.0296 219.866C39.0296 219.82 39.0296 219.773 39.0296 219.681V205.392C39.0296 205.3 39.0296 205.207 39.0296 205.161C39.4904 200.782 40.8267 197.648 42.6238 195.435L72.5755 153.581C75.3403 148.557 79.9943 146.943 84.0033 146.621C84.0494 146.621 84.1415 146.621 84.1876 146.621H106.997V103.43C106.721 98.9586 108.057 94.8101 110.914 91.0764L140.543 49.7753C141.326 48.3924 142.248 47.0557 143.446 45.765C147.178 41.6626 152.201 39.5883 158.468 39.5883H178.19C184.457 39.5883 189.48 41.6626 193.212 45.8111C196.898 49.9136 198.603 54.5231 198.327 59.5935V99.3734L222.242 66.2773C224.27 62.728 226.666 59.4552 229.384 56.413C229.477 56.3208 229.569 56.2286 229.615 56.1364C231.596 53.9699 233.762 51.9417 236.066 50.0519C244.452 43.2298 253.945 39.7266 264.221 39.5883H295.739C295.785 39.5883 295.831 39.5883 295.831 39.5883C304.909 40.0032 312.881 41.8009 319.562 44.8431C326.382 47.9315 331.727 52.4488 335.552 58.1646C339.33 63.8803 341.588 71.7626 342.326 81.6269C342.326 81.673 342.326 81.7191 342.326 81.8113V96.1468H342.51Z" fill="#FCBA28"/>
<path d="M381.539 78.8153C381.539 78.7692 381.539 78.677 381.539 78.6309C380.295 62.0829 375.871 47.9317 368.36 36.5923C360.481 24.6538 349.56 15.4809 336.013 9.25804C324.769 4.1415 311.959 1.19142 297.951 0.546094C297.306 0.499999 296.615 0.5 295.923 0.5H263.852C247.494 0.730475 231.596 5.75482 217.864 15.066C207.174 5.52435 193.534 0.5 178.328 0.5H158.606C141.418 0.5 126.396 6.8611 115.153 18.938C115.107 18.9841 115.107 18.9841 115.061 19.0302L114.6 19.5372C114.554 19.5833 114.508 19.6294 114.462 19.6755C112.02 22.3951 109.808 25.3452 107.872 28.3874L79.4873 67.9369C71.4695 78.6309 67.5066 91.2609 67.9214 104.398V110.298C56.2171 114.17 46.2639 121.914 39.8128 132.285L11.7042 171.604C5.29916 179.855 1.42847 189.766 0.230398 201.059C0.0921592 202.534 0 204.055 0 205.484V219.774C0 220.742 0.0460801 221.756 0.0921597 222.816C1.33631 239.456 5.75995 253.7 13.2709 265.039C21.1505 276.978 32.0714 286.15 45.6188 292.373C56.8622 297.49 69.5802 300.44 83.4963 301.131C84.1414 301.177 84.7865 301.177 85.5238 301.177H111.973C112.757 301.177 113.54 301.177 114.37 301.131C134.875 299.979 153.399 292.742 168.098 280.204C173.72 285.09 180.125 289.193 187.221 292.419C198.465 297.536 211.183 300.486 225.099 301.177C225.744 301.223 226.389 301.223 227.126 301.223H259.613C278.459 300.947 296.43 294.309 311.636 282.002C319.7 275.502 326.566 267.805 332.188 259.185L359.513 221.064C360.343 220.004 361.172 218.852 362.048 217.561C362.416 217.054 362.831 216.455 363.246 215.81C367.347 209.541 370.757 202.719 373.383 195.528C378.682 181.054 381.355 167.456 381.355 155.01C381.355 154.134 381.309 153.259 381.263 152.429C380.618 141.873 378.314 132.101 374.535 123.343C378.314 116.567 380.664 108.961 381.539 100.618C381.677 99.1893 381.77 97.7603 381.77 96.2853V81.9959C381.677 80.8896 381.631 79.8755 381.539 78.8153ZM377.07 96.147C377.07 97.4377 377.023 98.7283 376.885 99.9729C376.01 108.086 373.66 115.461 369.881 121.914C369.512 122.559 369.466 123.343 369.789 124.034C373.66 132.562 375.964 142.196 376.609 152.613C376.655 153.351 376.701 154.134 376.701 154.918C376.701 166.764 374.12 179.855 369.006 193.822C366.517 200.69 363.246 207.19 359.329 213.182C358.914 213.827 358.592 214.334 358.223 214.795C358.223 214.795 358.223 214.842 358.177 214.842C357.301 216.086 356.518 217.192 355.735 218.253C355.735 218.253 355.735 218.299 355.689 218.299L328.317 256.511C328.317 256.557 328.271 256.557 328.271 256.604C322.972 264.855 316.337 272.184 308.687 278.406C294.311 290.022 277.307 296.337 259.52 296.568H227.034C226.435 296.568 225.836 296.568 225.237 296.522C211.92 295.876 199.755 293.065 189.065 288.179C181.738 284.86 175.195 280.527 169.619 275.364C169.158 274.949 168.605 274.765 168.052 274.765C167.499 274.765 166.946 274.949 166.532 275.364C152.431 288.04 134.276 295.323 114.093 296.476C113.356 296.522 112.665 296.522 111.973 296.522H85.5238C84.9247 296.522 84.3257 296.522 83.7267 296.476C70.4097 295.83 58.2446 293.019 47.5542 288.132C34.7901 282.325 24.5604 273.659 17.1416 262.458C10.0454 251.764 5.89819 238.304 4.70012 222.447C4.65404 221.525 4.60796 220.603 4.60796 219.728V205.438C4.60796 204.147 4.70012 202.811 4.83836 201.52C5.94427 191.057 9.53848 181.93 15.3906 174.37C15.3906 174.324 15.4367 174.324 15.4367 174.278L43.6835 134.867C43.7296 134.821 43.7296 134.775 43.7756 134.729C49.9503 124.818 59.5809 117.489 70.9626 114.17C71.9303 113.894 72.6215 112.972 72.6215 111.958V104.352C72.6215 104.306 72.6215 104.306 72.6215 104.26C72.2068 92.1368 75.8931 80.5208 83.2659 70.6565C83.2659 70.6565 83.2659 70.6104 83.312 70.6104L111.743 30.9688C111.789 30.9227 111.789 30.8766 111.835 30.8305C113.586 27.9726 115.66 25.2069 117.964 22.6717L118.01 22.6256C118.01 22.6256 118.01 22.6256 118.056 22.5795L118.609 22.0263C128.977 10.9175 142.801 5.0634 158.698 5.0634H178.42C193.074 5.0634 206.114 10.0877 216.159 19.6755C216.943 20.413 218.187 20.5052 219.062 19.906C232.426 10.4565 247.954 5.33997 263.99 5.10949H296.015C296.661 5.10949 297.26 5.1095 297.859 5.15559C311.268 5.80092 323.525 8.61271 334.215 13.4988C346.98 19.3528 357.209 27.9726 364.628 39.1737C371.724 49.8677 375.871 63.3274 377.07 79.1841C377.07 79.2302 377.07 79.3224 377.07 79.3685C377.116 80.2443 377.162 81.074 377.162 81.9037V96.147H377.07Z" fill="#231F20"/>
<path d="M84.4176 151.369C78.7959 151.876 75.8008 155.148 75.0635 161.786V175.845C75.7547 184.88 77.7822 192.024 81.0999 197.003C84.4176 201.981 89.1178 205.945 95.1542 208.665C101.283 211.476 108.609 213.09 116.904 213.505H143.215C154.873 212.813 164.642 208.895 172.245 201.843C179.941 194.698 185.424 185.709 188.604 175.154C191.829 164.413 193.58 153.673 193.857 143.164V59.6397C193.857 59.5936 193.857 59.5475 193.857 59.5014C194.087 55.6294 192.797 52.2184 189.94 48.9917C187.083 45.8112 183.258 44.29 178.328 44.29H158.606C153.629 44.29 149.851 45.8112 146.994 48.9917C144.091 52.1723 142.847 55.6294 143.077 59.4553C143.077 59.5014 143.077 59.5475 143.077 59.5936V142.288C143.077 142.334 143.077 142.38 143.077 142.426C142.801 147.543 142.294 152.751 141.602 158.006C140.865 163.584 139.575 167.871 137.732 171.143C137.594 171.328 137.455 171.512 137.317 171.696C134.506 174.324 131.096 174.324 128.009 171.789C127.963 171.743 127.871 171.696 127.825 171.65C126.304 170.129 125.751 167.179 125.889 161.74C125.152 155.148 122.111 151.83 116.351 151.369H84.4176Z" fill="#ED203D"/>
<path d="M298.872 117.996C280.118 112.88 275.925 110.298 274.358 108.823C271.824 106.38 270.487 103.43 270.303 100.019C270.303 99.973 270.303 99.8808 270.303 99.8347C270.441 94.0729 271.455 89.7399 273.344 86.5594C273.436 86.375 273.575 86.1906 273.759 86.0524C276.524 83.471 279.842 83.4249 282.929 85.868C285.279 87.343 286.431 90.6157 286.431 96.055C287.03 102.647 290.071 105.965 295.969 106.472H328.317C334.077 105.965 337.118 102.647 337.856 96.055V81.996C337.165 72.9614 335.137 65.8628 331.819 60.8384C328.502 55.8602 323.801 51.896 317.765 49.1764C311.636 46.3646 304.264 44.7513 295.785 44.3364H264.359C255.143 44.4747 246.618 47.6553 239.061 53.7859C231.366 60.0087 225.744 67.937 222.242 77.4326C218.74 87.0664 216.989 95.594 217.127 102.785C217.634 113.248 220.86 121.177 226.62 126.339C232.61 131.686 242.333 136.204 255.511 139.799C274.082 144.869 278.367 147.359 280.026 148.972C282.56 151.415 283.897 154.365 284.081 157.73C284.081 157.776 284.081 157.868 284.081 157.914C283.943 163.676 282.745 168.194 280.533 171.328C280.441 171.466 280.348 171.605 280.21 171.697C277.399 174.324 274.036 174.324 271.04 171.743L270.994 171.697C268.598 169.438 267.354 166.119 267.308 161.74C266.571 155.149 263.529 151.83 257.769 151.323H226.113C220.353 151.83 217.311 155.149 216.574 161.74V175.799C217.265 184.834 219.293 191.979 222.611 196.957C225.928 201.935 230.628 205.899 236.665 208.619C242.794 211.431 250.166 213.044 258.461 213.459C258.507 213.459 258.507 213.459 258.553 213.459H290.256C299.287 213.32 307.766 210.14 315.369 204.009C323.064 197.786 328.686 189.812 332.188 180.363C335.69 170.775 337.487 162.201 337.487 155.01C336.796 144.547 333.57 136.618 327.764 131.456C321.728 126.109 312.051 121.592 298.872 117.996Z" fill="#ED203D"/>
<path d="M335.69 58.2569C331.911 52.5412 326.52 48.0699 319.7 44.9355C313.019 41.8932 305.047 40.1416 295.969 39.6807C295.923 39.6807 295.877 39.6807 295.877 39.6807H264.359C254.083 39.8189 244.59 43.3683 236.204 50.1442C233.854 52.0341 231.734 54.0623 229.753 56.2288C229.661 56.3209 229.568 56.4131 229.522 56.5053C226.804 59.5476 224.408 62.8203 222.38 66.3696L198.465 99.5119V59.732C198.741 54.6615 197.036 50.0059 193.35 45.9496C189.617 41.8471 184.549 39.7268 178.328 39.7268H158.606C152.385 39.7268 147.316 41.801 143.584 45.9035C142.432 47.1941 141.464 48.5309 140.681 49.9137L111.052 91.2148C108.195 94.9485 106.858 99.0971 107.135 103.568V146.759H84.3255C84.2794 146.759 84.1873 146.759 84.1412 146.759C80.1323 147.082 75.4782 148.649 72.7134 153.72L42.7617 195.574C40.9646 197.786 39.6283 200.921 39.1675 205.3C39.1675 205.392 39.1675 205.484 39.1675 205.53V219.82C39.1675 219.866 39.1675 219.912 39.1675 220.004C39.9048 229.868 42.1627 237.751 45.9412 243.466C49.7197 249.182 55.111 253.653 61.9308 256.788C68.6124 259.83 76.538 261.582 85.4314 262.043C85.4775 262.043 85.5236 262.043 85.5236 262.043H111.973C112.019 262.043 112.065 262.043 112.112 262.043C124.922 261.305 135.658 256.972 144.091 249.136C147.409 246.048 150.358 242.637 152.892 238.949C152.938 238.903 152.938 238.903 152.984 238.857L182.613 197.325L182.659 197.279L182.982 197.694C181.876 199.676 181.093 202.165 180.77 205.346C180.77 205.438 180.77 205.53 180.77 205.576V219.866C180.77 219.912 180.77 219.958 180.77 220.05C181.507 229.915 183.765 237.797 187.544 243.513C191.322 249.228 196.714 253.699 203.533 256.834C210.169 259.876 218.002 261.628 226.85 262.089C226.942 262.089 227.08 262.089 227.172 262.089H259.105C269.243 261.951 278.643 258.401 287.076 251.625C292.145 247.523 296.43 242.683 299.794 237.244L327.948 197.925C328.686 196.957 329.377 195.989 330.068 194.975L330.206 194.79L330.252 194.744C332.833 190.872 334.953 186.631 336.657 182.068C340.39 171.927 342.233 162.846 342.233 155.056C342.233 155.01 342.233 154.964 342.233 154.918C341.496 143.164 337.717 134.129 330.99 128.137C330.068 127.307 329.054 126.524 327.995 125.74L340.021 104.813C341.312 102.739 342.279 100.019 342.648 96.5157C342.648 96.4235 342.648 96.3314 342.648 96.2853V81.9958C342.648 81.9497 342.648 81.9036 342.648 81.8114C341.772 71.8549 339.468 63.9266 335.69 58.2569ZM337.487 155.01C337.487 162.247 335.69 170.775 332.188 180.362C328.732 189.858 323.064 197.832 315.369 204.009C307.766 210.14 299.333 213.32 290.255 213.459H258.553C258.506 213.459 258.506 213.459 258.46 213.459C250.12 213.044 242.793 211.43 236.665 208.619C230.674 205.853 225.928 201.935 222.61 196.957C219.293 191.932 217.265 184.834 216.574 175.799V161.74C217.311 155.149 220.353 151.83 226.112 151.323H257.815C263.575 151.83 266.616 155.149 267.354 161.74C267.4 166.119 268.598 169.438 271.04 171.697L271.086 171.743C274.081 174.324 277.399 174.324 280.256 171.697C280.394 171.604 280.486 171.466 280.579 171.328C282.79 168.147 283.988 163.63 284.127 157.914C284.127 157.868 284.127 157.776 284.127 157.73C283.942 154.319 282.606 151.369 280.072 148.972C278.413 147.358 274.127 144.869 255.557 139.799C242.425 136.203 232.702 131.686 226.665 126.339C220.859 121.177 217.68 113.294 217.173 102.785C217.035 95.5477 218.74 87.0202 222.288 77.4324C225.744 67.9369 231.412 59.9624 239.107 53.7857C246.71 47.6551 255.235 44.4745 264.405 44.3363H295.831C304.31 44.7511 311.682 46.3644 317.811 49.1762C323.801 51.8958 328.547 55.86 331.865 60.8382C335.183 65.8626 337.21 72.9612 337.902 81.9958V96.0087C337.164 102.6 334.123 105.919 328.363 106.426H296.015C290.117 105.919 287.076 102.646 286.477 96.0087C286.477 90.5695 285.371 87.3428 282.975 85.8217C279.887 83.3787 276.57 83.4709 273.805 86.0061C273.667 86.1444 273.528 86.3288 273.39 86.5131C271.501 89.6937 270.487 94.0266 270.349 99.7885C270.349 99.8346 270.349 99.9268 270.349 99.9729C270.533 103.384 271.87 106.334 274.404 108.777C275.925 110.252 280.164 112.833 298.918 117.95C312.097 121.545 321.774 126.063 327.81 131.41C333.524 136.618 336.796 144.501 337.487 155.01ZM116.305 151.369C122.065 151.876 125.106 155.149 125.843 161.74C125.705 167.179 126.258 170.175 127.779 171.65C127.825 171.697 127.917 171.743 127.963 171.789C131.096 174.324 134.46 174.278 137.271 171.697C137.455 171.558 137.594 171.374 137.686 171.143C139.529 167.917 140.773 163.63 141.556 158.006C142.248 152.752 142.754 147.497 143.031 142.426C143.031 142.38 143.031 142.334 143.031 142.288V59.6398C143.031 59.5937 143.031 59.5476 143.031 59.5015C142.801 55.6295 144.091 52.2185 146.948 49.0379C149.805 45.8574 153.583 44.3363 158.56 44.3363H178.282C183.258 44.3363 187.037 45.8574 189.894 49.0379C192.751 52.2185 194.041 55.6756 193.811 59.5476C193.811 59.5937 193.811 59.6398 193.811 59.6859V143.21C193.534 153.72 191.783 164.506 188.558 175.2C185.424 185.756 179.895 194.698 172.199 201.889C164.596 208.941 154.827 212.859 143.169 213.551H116.904C108.609 213.136 101.283 211.523 95.1542 208.711C89.1639 205.945 84.4177 202.027 81.0999 197.049C77.7822 192.024 75.7547 184.926 75.0635 175.891V161.832C75.8008 155.241 78.7499 151.922 84.4177 151.415H116.305V151.369Z" fill="#231F20"/>
</g>
<defs>
<clipPath id="clip0_8_766">
<rect width="382" height="301" fill="white" transform="translate(0 0.5)"/>
</clipPath>
</defs>
</svg>
