<svg width="310" height="302" viewBox="0 0 310 302" fill="none" xmlns="http://www.w3.org/2000/svg">
<path d="M298.493 7.47614C297.525 7.47614 296.568 7.62346 295.649 7.89354H295.6L295.551 7.93037L259.77 19.2124C255.663 20.5014 252.904 24.2703 252.904 28.5793C252.904 32.8883 255.65 36.6449 259.746 37.9462L261.18 38.4005L253.59 45.9996C249.201 42.8445 244.615 40.2787 239.869 38.3268C234.057 35.9329 227.804 34.7298 221.28 34.7298C195.126 34.7298 170.173 54.0774 158.058 65.1385C145.931 54.0897 120.978 34.7421 94.8354 34.7421C88.3121 34.7421 82.0585 35.9574 76.2464 38.3391C54.8616 47.1167 37.1677 68.3058 30.0803 93.6444C28.1552 100.507 27.0394 107.541 26.7328 114.6C22.4534 116.343 18.3089 118.148 14.3728 119.99C11.6629 121.254 9.68876 123.672 8.98983 126.607C8.2909 129.541 8.96531 132.573 10.8169 134.93C11.0253 135.2 33.673 164.713 36.6404 193.489C36.6772 194.139 36.7385 194.753 36.8244 195.367V195.453L36.8734 195.698C36.8734 195.784 36.8979 195.87 36.9102 195.956C37.4375 199.197 39.2767 202.094 42.1092 204.071C45.3341 206.33 49.8588 207.385 56.3208 207.385C58.6873 207.385 61.1765 207.25 63.5798 207.029C51.6858 215.635 43.2619 228.047 38.7985 243.724C37.3884 248.646 39.9266 253.741 44.7088 255.583C45.1134 255.742 55.5115 259.72 69.8457 259.72C73.4997 259.72 77.1415 259.45 80.6484 258.934C84.7071 258.333 88.6554 257.387 92.4566 256.098C93.1065 270.916 98.9064 284.923 109.611 297.261C111.499 299.422 114.185 300.637 117.017 300.637C119.089 300.637 121.064 299.999 122.744 298.783C123.332 298.354 136.992 288.336 145.195 270.449C145.931 268.841 146.605 267.208 147.218 265.563C147.807 266.791 148.31 268.056 148.727 269.357C150.051 273.408 153.803 276.133 158.058 276.133H158.193C162.509 276.072 166.224 273.261 167.463 269.124C171.509 255.484 185.218 246.67 204.199 234.467C207.878 232.098 211.863 229.532 215.959 226.807C228.171 243.503 243.057 252.268 259.415 252.268C260.8 252.268 262.21 252.207 263.596 252.072C266.711 251.789 269.531 250.009 271.125 247.333C272.719 244.657 272.952 241.342 271.738 238.457C271.701 238.371 268.893 231.631 266.318 221.884C267.348 221.958 268.403 221.994 269.494 221.994C279.242 221.994 288.402 218.888 296.74 212.762C299.254 210.921 300.762 207.938 300.737 204.783C300.713 201.628 299.168 198.657 296.605 196.828C296.605 196.828 295.318 195.882 293.282 194.127C296.556 191.991 298.359 188.013 297.598 184.036C295.391 172.201 291.602 136.096 301.841 122.04C304.6 120.063 306.292 117.055 306.439 113.667C306.733 106.915 301.032 101.44 286.354 94.7124C286.256 94.3441 286.158 93.9758 286.048 93.6075C283.068 82.9884 278.212 72.9709 271.836 64.2423L281.118 54.9491L282.627 58.2637C284.221 61.7625 287.727 64.0213 291.553 64.0213C291.958 64.0213 292.375 63.9968 292.767 63.9477C296.997 63.4321 300.406 60.2402 301.191 56.0048L308.131 19.1019C308.757 15.7259 307.567 12.2271 305.017 9.95598C303.227 8.34777 300.897 7.46387 298.493 7.46387V7.47614Z" fill="#231F20" stroke="#231F20" stroke-linecap="round" stroke-linejoin="round"/>
<path d="M292.362 1.33796C291.393 1.33796 290.437 1.48528 289.517 1.75536H289.468L289.419 1.79219L253.639 13.0742C249.531 14.3632 246.772 18.1321 246.772 22.4411C246.772 26.7502 249.519 30.5067 253.614 31.808L255.049 32.2623L247.459 39.8614C243.069 36.7063 238.483 34.1406 233.738 32.1886C227.926 29.7947 221.672 28.5916 215.149 28.5916C188.994 28.5916 164.041 47.9393 151.926 59.0003C139.799 47.9515 114.846 28.6039 88.7041 28.6039C82.1807 28.6039 75.9272 29.8193 70.115 32.2009C48.7303 40.9785 31.0363 62.1676 23.949 87.5062C22.0238 94.3687 20.908 101.403 20.6015 108.462C16.3221 110.205 12.1775 112.01 8.24146 113.851C5.53158 115.116 3.55741 117.534 2.85848 120.468C2.15955 123.402 2.83396 126.435 4.68551 128.792C4.89396 129.062 27.5417 158.574 30.5091 187.35C30.5459 188.001 30.6072 188.615 30.693 189.229V189.315L30.7421 189.56C30.7421 189.646 30.7666 189.732 30.7788 189.818C31.3061 193.059 33.1454 195.956 35.9779 197.933C39.2028 200.191 43.7274 201.247 50.1894 201.247C52.556 201.247 55.0452 201.112 57.4485 200.891C45.5544 209.497 37.1305 221.908 32.6672 237.585C31.2571 242.508 33.7953 247.603 38.5774 249.444C38.9821 249.604 49.3801 253.582 63.7143 253.582C67.3684 253.582 71.0102 253.312 74.5171 252.796C78.5758 252.194 82.5241 251.249 86.3253 249.96C86.9752 264.778 92.775 278.785 103.48 291.123C105.368 293.284 108.053 294.499 110.886 294.499C112.958 294.499 114.932 293.861 116.612 292.645C117.201 292.216 130.861 282.198 139.064 264.311C139.799 262.703 140.474 261.07 141.087 259.425C141.676 260.653 142.178 261.917 142.595 263.219C143.919 267.27 147.672 269.995 151.926 269.995H152.061C156.378 269.934 160.093 267.123 161.331 262.985C165.378 249.346 179.087 240.532 198.068 228.329C201.747 225.96 205.732 223.394 209.827 220.669C222.04 237.364 236.926 246.13 253.283 246.13C254.669 246.13 256.079 246.068 257.465 245.933C260.579 245.651 263.399 243.871 264.993 241.195C266.588 238.518 266.821 235.204 265.607 232.319C265.57 232.233 262.762 225.493 260.187 215.746C261.217 215.819 262.271 215.856 263.363 215.856C273.111 215.856 282.271 212.75 290.609 206.624C293.122 204.783 294.631 201.8 294.606 198.645C294.581 195.49 293.036 192.519 290.474 190.69C290.474 190.69 289.186 189.744 287.151 187.989C290.425 185.853 292.227 181.875 291.467 177.897C289.26 166.063 285.471 129.958 295.71 115.902C298.469 113.925 300.161 110.917 300.308 107.529C300.602 100.777 294.9 95.3017 280.223 88.5742C280.125 88.2059 280.027 87.8376 279.916 87.4693C276.937 76.8502 272.081 66.8327 265.705 58.1041L274.987 48.8109L276.495 52.1255C278.089 55.6243 281.596 57.8832 285.422 57.8832C285.826 57.8832 286.243 57.8586 286.636 57.8095C290.866 57.2939 294.275 54.102 295.06 49.8667L302 12.9637C302.625 9.58772 301.436 6.08894 298.885 3.8178C297.095 2.20959 294.765 1.32568 292.362 1.32568V1.33796Z" fill="#F0F4DA" stroke="#231F20" stroke-linecap="round" stroke-linejoin="round"/>
<path d="M123.859 198.559C123.859 198.559 58.1843 183.827 42.0967 240.286C42.0967 240.286 97.4714 261.672 123.859 198.559Z" fill="#0BA65B" stroke="#231F20" stroke-linecap="round" stroke-linejoin="round"/>
<path d="M121.174 200.02L55.4497 233.497" stroke="#231F20" stroke-linecap="round" stroke-linejoin="round"/>
<path d="M57.4116 221.516L68.9991 226.61L68.3738 238.629" stroke="#231F20" stroke-linecap="round" stroke-linejoin="round"/>
<path d="M67.9082 216.09L79.4957 221.185L78.8703 233.203" stroke="#231F20" stroke-linecap="round" stroke-linejoin="round"/>
<path d="M79.4956 210.455L91.0708 215.537L90.4578 227.556" stroke="#231F20" stroke-linecap="round" stroke-linejoin="round"/>
<path d="M120.634 193.341C120.634 193.341 72.4451 240.385 110.898 284.702C110.898 284.702 159.026 249.936 120.634 193.341Z" fill="#0BA65B" stroke="#231F20" stroke-linecap="round" stroke-linejoin="round"/>
<path d="M120.389 196.386L112.505 269.799" stroke="#231F20" stroke-linecap="round" stroke-linejoin="round"/>
<path d="M103.554 261.611L114.136 254.674L123.859 261.758" stroke="#231F20" stroke-linecap="round" stroke-linejoin="round"/>
<path d="M104.743 249.838L115.325 242.901L125.049 249.985" stroke="#231F20" stroke-linecap="round" stroke-linejoin="round"/>
<path d="M106.349 237.046L116.931 230.109L126.655 237.193" stroke="#231F20" stroke-linecap="round" stroke-linejoin="round"/>
<path d="M203.574 187.608C203.574 187.608 220.078 239.5 256.582 236.186C256.582 236.186 250.157 221.061 247.373 202.241C247.373 202.241 265.472 212.947 284.809 198.73C284.809 198.73 253.835 176.731 249.826 142.762" fill="#F0F4DA"/>
<path d="M203.574 187.608C203.574 187.608 220.078 239.5 256.582 236.186C256.582 236.186 250.157 221.061 247.373 202.241C247.373 202.241 265.472 212.947 284.809 198.73C284.809 198.73 253.835 176.731 249.826 142.762" stroke="#231F20" stroke-linecap="round" stroke-linejoin="round"/>
<path d="M69.4529 189.315C69.4529 189.315 41.5081 194.753 40.4658 188.21C38.0379 173.012 60.3669 169.059 60.3669 169.059L71.9544 178.904L69.4529 189.315Z" fill="#F0F4DA" stroke="#231F20" stroke-linecap="round" stroke-linejoin="round"/>
<path d="M271.799 95.6211C271.799 95.6211 296.286 106.019 289.223 108.327C282.148 110.635 262.652 118.959 262.652 118.959L260.604 99.3286L271.811 95.6211H271.799Z" fill="#F0F4DA" stroke="#231F20" stroke-linecap="round" stroke-linejoin="round"/>
<path d="M230.023 41.2854C194.194 26.566 151.927 72.713 151.927 72.713C151.927 72.713 109.66 26.566 73.8307 41.2854C38.0014 56.0048 10.4367 113.95 49.0249 166.382C87.6131 218.815 140.732 225.837 151.927 260.211C162.092 225.984 216.24 218.815 254.829 166.382C293.417 113.95 265.852 56.0048 230.023 41.2854Z" fill="#EA203D" stroke="#231F20" stroke-linejoin="round"/>
<path d="M12.4106 122.74C28.7435 115.079 51.1951 106.903 81.016 100.655C114.368 93.657 159.909 99.3655 208.111 105.418C231.715 108.376 260.273 115.521 289.211 108.34C272.007 128.154 281.817 179.788 281.817 179.788C255.258 188.787 230.378 179.972 199.282 176.069C160.866 171.244 117.323 165.781 95.6077 170.335C69.5634 175.799 40.4536 188.21 40.4536 188.21C37.9277 155.358 12.4106 122.74 12.4106 122.74Z" fill="#F0F4DA" stroke="#231F20" stroke-linecap="round" stroke-linejoin="round"/>
<path d="M76.0746 155.002L69.4531 130.511" stroke="#231F20" stroke-miterlimit="10"/>
<path d="M80.9056 153.713L74.2842 129.222" stroke="#231F20" stroke-miterlimit="10"/>
<path d="M67.6016 131.1L76.2953 128.89" stroke="#231F20" stroke-miterlimit="10" stroke-linecap="round"/>
<path d="M70.5811 142.382L79.2747 140.172" stroke="#231F20" stroke-miterlimit="10" stroke-linecap="round"/>
<path d="M53.77 134.783L58.6503 133.543" stroke="#231F20" stroke-miterlimit="10" stroke-linecap="round"/>
<path d="M74.2842 155.37L82.9779 153.161" stroke="#231F20" stroke-miterlimit="10" stroke-linecap="round"/>
<path d="M56.21 134.243C56.21 134.243 58.8708 145.66 60.2073 149.92C63.2728 159.716 74.0142 158.82 74.0142 147.391" stroke="#231F20" stroke-miterlimit="10" stroke-linecap="round"/>
<path d="M87.4043 144.53C87.4043 144.53 89.6727 152.694 97.7288 151.417C103.602 150.484 107.477 147.096 106.668 141.178C105.858 135.261 97.3977 135.605 93.5475 134.733C87.4043 133.346 87.3307 125.305 95.8527 125.833" stroke="#231F20" stroke-miterlimit="10" stroke-linecap="round"/>
<path d="M100.464 128.89C98.9553 126.962 96.3067 125.011 91.9292 125.71C86.0558 126.643 83.5298 129.491 84.5598 134.721C85.5898 139.951 94.1119 141.007 97.9498 141.903C105.221 143.597 103.921 149.453 99.2864 151.086" stroke="#231F20" stroke-miterlimit="10" stroke-linecap="round"/>
<path d="M99.2984 151.086C103.933 149.465 105.233 143.609 97.9618 141.903C97.3242 141.756 96.5394 141.596 95.6934 141.424L97.3732 135.298C101.358 135.851 106.079 136.821 106.668 141.166C107.477 147.084 103.602 150.472 97.7288 151.405" fill="#231F20"/>
<path d="M85.5527 144.641L89.7218 144.297" stroke="#231F20" stroke-miterlimit="10" stroke-linecap="round"/>
<path d="M129.684 143.008L133.877 143.131" stroke="#231F20" stroke-miterlimit="10" stroke-linecap="round"/>
<path d="M98.5874 129.713L102.523 128.264" stroke="#231F20" stroke-miterlimit="10" stroke-linecap="round"/>
<path d="M108.434 137.349H133.288C133.288 137.349 133.006 124.581 122.792 124.581C114.221 124.581 110.383 130.13 110.383 137.827C110.383 145.525 117.238 151.184 122.731 151.074C130.444 150.914 131.842 143.192 131.842 143.192" stroke="#231F20" stroke-miterlimit="10" stroke-linecap="round"/>
<path d="M122.106 124.581C117.716 126.091 115.742 131.186 115.742 138.331C115.742 145.476 118.329 149.809 122.719 151.074" stroke="#231F20" stroke-miterlimit="10" stroke-linecap="round"/>
<path d="M122.731 151.061C118.341 149.809 115.754 145.463 115.754 138.318L115.815 137.349L110.383 137.398C110.383 145.721 117.238 151.172 122.731 151.061Z" fill="#231F20"/>
<path d="M176.205 122.187C176.205 122.187 173.605 142.124 173.029 147.391C172.453 152.657 174.954 154.805 177.799 155.137C180.644 155.468 183.991 153.676 183.991 153.676" stroke="#231F20" stroke-miterlimit="10" stroke-linecap="round"/>
<path d="M181.846 122.862C181.846 122.862 179.406 144.26 179.025 147.931C178.645 151.601 178.069 155.284 181.956 154.523" stroke="#231F20" stroke-miterlimit="10" stroke-linecap="round"/>
<path d="M184.003 153.676C184.003 153.676 180.656 155.469 177.811 155.137C174.966 154.806 172.465 152.669 173.041 147.391C173.618 142.124 174.415 137.717 174.415 137.717L180.055 138.404C180.055 138.404 179.405 144.272 179.025 147.931C178.645 151.601 178.069 155.284 181.956 154.523" fill="#231F20"/>
<path d="M174.586 121.855L183.501 122.874" stroke="#231F20" stroke-miterlimit="10" stroke-linecap="round"/>
<path d="M172.772 137.545L181.686 138.576" stroke="#231F20" stroke-miterlimit="10" stroke-linecap="round"/>
<path d="M180.803 131.984L186.125 132.61" stroke="#231F20" stroke-miterlimit="10" stroke-linecap="round"/>
<path d="M170.908 130.83L175.028 131.308" stroke="#231F20" stroke-miterlimit="10" stroke-linecap="round"/>
<path d="M171.006 129.062L170.528 133.04" stroke="#231F20" stroke-miterlimit="10" stroke-linecap="round"/>
<path d="M186.456 130.621L185.978 134.599" stroke="#231F20" stroke-miterlimit="10" stroke-linecap="round"/>
<path d="M183.464 152.375L184.74 154.965" stroke="#231F20" stroke-miterlimit="10" stroke-linecap="round"/>
<path d="M222.665 128.141C222.665 128.141 220.066 148.078 219.49 153.345C218.913 158.611 221.415 160.76 224.259 161.091C227.104 161.423 230.452 159.63 230.452 159.63" stroke="#231F20" stroke-miterlimit="10" stroke-linecap="round"/>
<path d="M228.306 128.829C228.306 128.829 225.866 150.226 225.486 153.897C225.106 157.568 224.529 161.251 228.416 160.489" stroke="#231F20" stroke-miterlimit="10" stroke-linecap="round"/>
<path d="M230.464 159.63C230.464 159.63 227.116 161.423 224.272 161.091C221.427 160.76 218.925 158.624 219.502 153.345C220.078 148.078 220.875 143.671 220.875 143.671L226.516 144.358C226.516 144.358 225.866 150.227 225.486 153.885C225.105 157.556 224.529 161.238 228.416 160.477" fill="#231F20"/>
<path d="M221.059 127.81L229.961 128.841" stroke="#231F20" stroke-miterlimit="10" stroke-linecap="round"/>
<path d="M219.232 143.511L228.146 144.53" stroke="#231F20" stroke-miterlimit="10" stroke-linecap="round"/>
<path d="M227.276 137.938L232.585 138.564" stroke="#231F20" stroke-miterlimit="10" stroke-linecap="round"/>
<path d="M217.368 136.784L221.488 137.262" stroke="#231F20" stroke-miterlimit="10" stroke-linecap="round"/>
<path d="M217.466 135.016L217 138.994" stroke="#231F20" stroke-miterlimit="10" stroke-linecap="round"/>
<path d="M232.917 136.575L232.451 140.553" stroke="#231F20" stroke-miterlimit="10" stroke-linecap="round"/>
<path d="M229.924 158.329L231.2 160.919" stroke="#231F20" stroke-miterlimit="10" stroke-linecap="round"/>
<path d="M192.881 138.76C192.881 138.76 194.39 130.805 203.194 131.984C211.998 133.162 212.758 137.533 212.083 143.585C211.409 149.637 210.146 159.102 210.146 159.102" stroke="#231F20" stroke-miterlimit="10" stroke-linecap="round"/>
<path d="M199.012 132.156C199.871 131.984 207.485 132.647 206.651 139.62C205.818 146.593 204.616 158.231 204.616 158.231" stroke="#231F20" stroke-miterlimit="10" stroke-linecap="round"/>
<path d="M202.581 158.12L211.802 159.348" stroke="#231F20" stroke-miterlimit="10" stroke-linecap="round"/>
<path d="M191.397 138.674L194.782 139.104" stroke="#231F20" stroke-miterlimit="10" stroke-linecap="round"/>
<path d="M213.69 145.132C213.69 145.132 202.212 143.72 198.669 143.573C195.125 143.425 188.087 144.911 189.239 151.147C190.392 157.384 200.815 160.084 205.229 152.387" stroke="#231F20" stroke-miterlimit="10" stroke-linecap="round"/>
<path d="M97.6432 134.243L95.436 142.382" stroke="#231F20" stroke-miterlimit="10" stroke-linecap="round"/>
<path d="M141.026 141.829C141.026 141.829 142.264 153.099 153.177 153.16C161.135 153.209 166.997 149.576 167.205 141.571C167.413 133.567 156.157 132.192 151.265 130.203C143.454 127.036 145.097 116.392 156.243 118.946" stroke="#231F20" stroke-miterlimit="10" stroke-linecap="round"/>
<path d="M161.675 124.004C160.093 121.131 157.015 117.976 151.081 117.952C143.123 117.903 139.162 121.131 139.395 128.264C139.628 135.397 150.651 138.65 155.532 140.663C164.765 144.481 161.785 151.933 155.311 153.075" stroke="#231F20" stroke-miterlimit="10" stroke-linecap="round"/>
<path d="M155.323 153.074C161.797 151.933 164.777 144.481 155.544 140.663C154.722 140.319 153.741 139.951 152.65 139.533L156.194 131.799C161.344 133.395 167.364 135.703 167.205 141.571C166.996 149.576 161.135 153.209 153.177 153.16" fill="#231F20"/>
<path d="M138.561 141.572L144.152 142.038" stroke="#231F20" stroke-miterlimit="10" stroke-linecap="round"/>
<path d="M159.026 124.679L164.532 123.611" stroke="#231F20" stroke-miterlimit="10" stroke-linecap="round"/>
<path d="M156.782 130.461L152.11 140.725" stroke="#231F20" stroke-miterlimit="10" stroke-linecap="round"/>
<path d="M72.4814 141.731L76.0742 155.002L80.9054 153.713L77.3739 140.651L72.4814 141.731Z" fill="#231F20"/>
<path d="M253.934 156.217L258.09 156.708" stroke="#231F20" stroke-miterlimit="10" stroke-linecap="round"/>
<path d="M233.272 148.717L258.029 150.902C258.029 150.902 258.875 138.159 248.685 137.25C240.139 136.502 235.835 141.694 235.16 149.355C234.486 157.015 240.825 163.264 246.294 163.632C253.995 164.16 256.055 156.586 256.055 156.586" stroke="#231F20" stroke-miterlimit="10" stroke-linecap="round"/>
<path d="M248.011 137.201C243.511 138.318 241.095 143.217 240.458 150.337C239.832 157.445 242.027 162 246.294 163.645" stroke="#231F20" stroke-miterlimit="10" stroke-linecap="round"/>
<path d="M246.294 163.632C242.027 162 239.832 157.445 240.457 150.325L240.605 149.355L235.197 148.925C234.461 157.212 240.825 163.252 246.294 163.62" fill="#231F20"/>
<path d="M206.124 144.248L204.616 158.231L210.146 159.103L212.022 144.923L206.124 144.248Z" fill="#231F20"/>
<path d="M80.9056 48.5654C80.9056 48.5654 51.9921 57.0239 45.9102 90.8823" stroke="#F0F4DA" stroke-miterlimit="10" stroke-linecap="round"/>
<path d="M81.5311 56.7046C81.5311 56.7046 58.7362 63.3707 53.9541 90.0596" stroke="#F0F4DA" stroke-miterlimit="10" stroke-linecap="round"/>
<path d="M80.7093 65.6665C80.7093 65.6665 66.4119 69.8528 63.4077 86.5855" stroke="#F0F4DA" stroke-miterlimit="10" stroke-linecap="round"/>
<path d="M229.36 71.8782L277.55 23.6318L281.915 28.0022L233.726 76.2486" fill="#F9B728"/>
<path d="M229.36 71.8782L277.55 23.6318L281.915 28.0022L233.726 76.2486" stroke="#231F20" stroke-linecap="round" stroke-linejoin="round"/>
<path d="M226.369 68.9932L237.417 79.8455" stroke="#231F20" stroke-miterlimit="10" stroke-linecap="round"/>
<path d="M292.362 11.1592L256.57 22.4535L276.679 28.8495L285.41 48.0744L292.362 11.1592Z" fill="#F97428" stroke="#231F20" stroke-linejoin="round"/>
</svg>
